<?xml version="1.0" encoding="UTF-8" standalone="no"?>
<!-- Created with Inkscape (http://www.inkscape.org/) -->

<svg
   xmlns:dc="http://purl.org/dc/elements/1.1/"
   xmlns:cc="http://creativecommons.org/ns#"
   xmlns:rdf="http://www.w3.org/1999/02/22-rdf-syntax-ns#"
   xmlns:svg="http://www.w3.org/2000/svg"
   xmlns="http://www.w3.org/2000/svg"
   xmlns:sodipodi="http://sodipodi.sourceforge.net/DTD/sodipodi-0.dtd"
   xmlns:inkscape="http://www.inkscape.org/namespaces/inkscape"
   width="141.11111mm"
   height="38.397099mm"
   viewBox="0 0 500.00001 136.05271"
   id="svg3471"
   version="1.1"
   inkscape:version="0.91 r13725"
   sodipodi:docname="reevo-logo.svg">
  <defs
     id="defs3473" />
  <sodipodi:namedview
     id="base"
     pagecolor="#ffffff"
     bordercolor="#666666"
     borderopacity="1.0"
     inkscape:pageopacity="0.0"
     inkscape:pageshadow="2"
     inkscape:zoom="1.979899"
     inkscape:cx="319.60457"
     inkscape:cy="60.2337"
     inkscape:document-units="px"
     inkscape:current-layer="layer1"
     showgrid="false"
     fit-margin-top="0"
     fit-margin-left="0"
     fit-margin-right="0"
     fit-margin-bottom="0"
     inkscape:window-width="1920"
     inkscape:window-height="1015"
     inkscape:window-x="0"
     inkscape:window-y="0"
     inkscape:window-maximized="1" />
  <metadata
     id="metadata3476">
    <rdf:RDF>
      <cc:Work
         rdf:about="">
        <dc:format>image/svg+xml</dc:format>
        <dc:type
           rdf:resource="http://purl.org/dc/dcmitype/StillImage" />
        <dc:title></dc:title>
      </cc:Work>
    </rdf:RDF>
  </metadata>
  <g
     inkscape:label="Capa 1"
     inkscape:groupmode="layer"
     id="layer1"
     transform="translate(-18.403751,13.752377)">
    <g
       id="g3531"
       transform="matrix(1.4448794,0,0,1.4448794,-8.18745,-54.408904)">
      <path
         sodipodi:nodetypes="ccccc"
         inkscape:connector-curvature="0"
         id="path4973"
         d="m 323.05969,28.138373 c -25.4631,0.30396 -37.312,32.88862 -44.0244,49.51015 2.2291,6.89693 5.313,13.12654 7.5194,21.49988 7.4214,-28.96786 17.5999,-51.76131 37.5249,-70.93145 -0.3395,-0.0378 -0.6794,-0.0636 -1.0199,-0.0786 z"
         style="fill:#000000;fill-opacity:0.99607843;fill-rule:evenodd;stroke:none" />
      <path
         inkscape:connector-curvature="0"
         id="path4975"
         d="m 34.030951,83.674933 c -6.3391,4.57351 -11.6248,5.96527 -15.6272,4.80435 1.4217,3.72674 3.9263,7.12066 5.5391,8.33686 2.1767,1.58969 6.4524,0.47232 9.9102,-1.34924 0.3072,-3.05794 0.3705,-6.83053 0.1779,-11.79197 z"
         style="fill:#000000;fill-opacity:0.99607843;fill-rule:evenodd;stroke:none" />
      <path
         inkscape:connector-curvature="0"
         id="path4977"
         d="m 49.306951,91.653693 c 2.7221,12.086127 3.1104,22.653587 1.4705,30.646647 4.1419,-0.49868 8.2148,-3.39231 9.7646,-5.82321 2.197,-3.17409 1.6554,-11.86165 0.3939,-18.673317 -3.109,-2.10519 -6.8431,-4.08551 -11.629,-6.15012 z"
         style="fill:#000000;fill-opacity:0.99607843;fill-rule:evenodd;stroke:none" />
      <path
         inkscape:connector-curvature="0"
         id="path4979"
         d="m 71.137951,64.887853 c -3.0664,2.53818 -6.159,5.87804 -9.6549,10.44852 13.0246,1.76741 25.4186,6.84146 35.8322,14.59326 -0.075,-6.20901 -3.2056,-13.3546 -5.9711,-16.61019 -3.2811,-4.10952 -12.8754,-7.19572 -20.2062,-8.43159 z m -10.1724,10.31914 c -0.015,0.0247 -0.016,0.0247 -0.031,0.0497 0.016,0.002 0.031,0.005 0.047,0.007 -0.01,-0.0254 -0.01,-0.0315 -0.017,-0.0566 z"
         style="fill:#000000;fill-opacity:0.99607843;fill-rule:evenodd;stroke:none" />
      <path
         inkscape:connector-curvature="0"
         id="path4981"
         d="m 71.085351,32.324143 c -4.1485,0.0155 -8.4834,0.92584 -10.9903,2.00769 -3.9918,1.72787 -9.4361,8.07972 -12.9136,13.47968 0.6318,2.90199 1.9396,6.09997 4.1285,10.0338 5.8649,-10.81553 14.0433,-19.34429 23.7873,-25.21158 -1.2666,-0.22031 -2.6291,-0.31475 -4.0119,-0.30959 z"
         style="fill:#000000;fill-opacity:0.99607843;fill-rule:evenodd;stroke:none" />
      <path
         inkscape:connector-curvature="0"
         id="path4983"
         d="m 29.035951,44.051433 c -2.3691,3.75875 -4.2244,8.75836 -4.7304,11.49741 -0.5689,3.46146 0.9857,8.6748 2.9145,12.43426 2.024,-0.44427 4.5358,-1.45819 7.8852,-3.22177 -4.7092,-6.56287 -6.5752,-13.64232 -6.0693,-20.7099 z m 6.2899,21.01948 c -0.038,0.14562 -0.05,0.19041 -0.085,0.32576 0.1023,-0.0683 0.1053,-0.072 0.2137,-0.14439 -0.044,-0.0601 -0.084,-0.12124 -0.1282,-0.18137 z"
         style="fill:#000000;fill-opacity:0.99607843;fill-rule:evenodd;stroke:none" />
      <path
         id="path4985"
         style="fill:#000000;fill-opacity:0.99607843;fill-rule:evenodd;stroke:none"
         d="m 45.417351,66.643623 c 4.4154,-0.2672 8.044,3.78331 7.9528,9.03439 -5e-4,5.3285 -3.7226,9.50033 -8.1491,9.36189 -4.13,-0.1496 -7.3452,-4.22393 -7.3452,-9.1706 0.1274,-4.84543 3.4352,-8.98155 7.5415,-9.22568"
         inkscape:connector-curvature="0" />
      <path
         sodipodi:nodetypes="scccccccccscccscccscsc"
         inkscape:connector-curvature="0"
         id="path4987"
         d="m 335.41019,42.908973 c -8.298,0 -15.2127,2.85503 -20.7445,8.56443 -5.532,5.638 -8.2989,12.56051 -8.2988,20.76765 -1e-4,5.31145 1.166,10.09702 3.4829,14.36223 14.2477,-6.52813 8.2936,-5.04399 8.1347,-14.36223 0,-5.49522 1.6248,-9.95587 4.8748,-13.3815 3.3192,-3.4969 7.5029,-5.24552 12.5509,-5.24563 5.0479,1.1e-4 9.1968,1.74873 12.447,5.24563 3.8976,3.9863 7.0914,-1.21696 11.2513,-3.8883 -0.8776,-1.21539 -1.8599,-2.38293 -2.9538,-3.49785 -5.5321,-5.7094 -12.4466,-8.56443 -20.7445,-8.56443 z m 24.7299,13.60097 c -10.9665,6.3762 -7.8874,7.12022 -7.3042,15.73111 0,5.49533 -1.6597,9.99202 -4.9787,13.48893 -3.2502,3.42571 -7.3991,5.13819 -12.447,5.13819 -5.048,0 -9.2317,-1.71249 -12.5509,-5.13819 -3.465,-3.14483 -5.4635,-1.7709 -12.0716,2.47206 1.0923,1.72869 2.3803,3.36847 3.878,4.91409 5.5318,5.6381 12.4465,8.456997 20.7445,8.456997 8.2979,0 15.2124,-2.818897 20.7445,-8.456997 5.532,-5.70929 8.2987,-12.66773 8.2987,-20.87508 0,-5.91127 -1.4435,-11.15262 -4.3133,-15.73111 z"
         style="font-style:normal;font-variant:normal;font-weight:normal;font-stretch:normal;font-size:111.00462341px;line-height:125%;font-family:'Montserrat Alternates';-inkscape-font-specification:'Montserrat Alternates';text-align:start;letter-spacing:0px;word-spacing:0px;writing-mode:lr-tb;text-anchor:start;fill:#000000;fill-opacity:0.99607843;stroke:none" />
      <path
         sodipodi:nodetypes="csccsssccscccsccccscccc"
         inkscape:connector-curvature="0"
         id="path4989"
         d="m 174.30395,42.653393 c -1.7921,-0.0143 -3.6462,0.11832 -5.5617,0.39689 -4.8504,0.7054 -9.2963,2.46919 -13.3361,5.29227 -4.0501,2.75263 -7.2171,6.63922 -9.5018,11.65904 -2.2951,4.94938 -3.0056,10.42485 -2.1325,16.42794 1.2633,8.68678 5.1269,15.26482 11.5911,19.73368 6.4641,4.468667 13.6681,6.125627 21.6112,4.970437 7.2641,-1.05643 13.4352,-4.228367 18.5194,-9.503877 l -7.5194,-7.08447 c -3.0403,3.14647 -6.8715,5.06205 -11.5018,5.73544 -6.2561,0.90984 -11.5405,-0.62943 -15.8532,-4.61776 l 0,-10e-4 c -2.6761,-2.37499 -4.39,-5.46007 -5.0876,-8.89825 -0.1142,-0.41661 -0.228,-0.98426 -0.3434,-1.77779 -0.8422,-5.79115 0.3967,-10.58826 3.7201,-14.38899 3.3937,-3.81091 7.4114,-6.05387 12.0508,-6.7287 6.1156,-0.88929 10.7073,0.82351 13.7752,5.13702 l -25.6792,16.4672 c 9.2315,2.4473 11.7922,4.12921 17.4942,0.65909 4.2366,-2.5783 14.1877,-9.13105 22.3076,-14.04367 -1.0666,-6.8403 -4.4157,-11.85095 -10.0931,-15.35242 -4.2658,-2.679 -9.0867,-4.03932 -14.463,-4.08205 z"
         style="font-style:normal;font-variant:normal;font-weight:normal;font-stretch:normal;font-size:111.00462341px;line-height:125%;font-family:'Montserrat Alternates';-inkscape-font-specification:'Montserrat Alternates';text-align:start;letter-spacing:0px;word-spacing:0px;writing-mode:lr-tb;text-anchor:start;fill:#000000;fill-opacity:0.99607843;stroke:none" />
      <path
         inkscape:connector-curvature="0"
         id="path4991"
         style="font-style:normal;font-variant:normal;font-weight:normal;font-stretch:normal;font-size:111.00462341px;line-height:125%;font-family:'Montserrat Alternates';-inkscape-font-specification:'Montserrat Alternates';text-align:start;letter-spacing:0px;word-spacing:0px;writing-mode:lr-tb;text-anchor:start;fill:#000000;fill-opacity:0.99607843;stroke:none"
         d="m 144.26075,55.026293 c -13.4781,0.93204 -18.8812,4.92915 -22.0055,21.30315 -5.5625,29.151937 -5.8027,26.986017 -19.1689,33.107207 l 11.4469,-62.321897 11.9336,-3.36845 0,5.13829 c 3.4449,-4.19805 15.6064,-5.78458 21.2393,-5.95494 l -2.2246,12.02684 -1.2208,0.0698"
         sodipodi:nodetypes="csccccccc" />
      <g
         style="fill:#000000;fill-opacity:0.99607843"
         transform="matrix(0.49651158,-1.5436379,-1.0864637,-0.54833064,296.28429,72.829954)"
         id="g4993">
        <path
           sodipodi:nodetypes="ccccc"
           id="path4995"
           style="fill:#000000;fill-opacity:0.99607843;fill-rule:evenodd;stroke:none"
           d="M -17.847898,1.7912349 C -7.145513,12.877035 -5.8775294,23.050571 15.502423,28.687091 c 0,0 -5.001118,9.250694 -5.011298,9.27303 -18.8887652,-5.565994 -32.419838,-25.076287 -32.88007,-28.1193857 -0.420014,1.3507827 4.53888,-8.0680592 4.53888,-8.0680592"
           inkscape:connector-curvature="0" />
      </g>
      <g
         style="fill:#000000;fill-opacity:0.99607843"
         transform="matrix(0.74082467,0,0,-0.74430678,35.426251,84.259494)"
         id="g4997">
        <path
           id="path4999"
           style="fill:#000000;fill-opacity:0.99607843;fill-rule:evenodd;stroke:none"
           d="m 0,0 c 0.757,-17.238 -0.684,-24.042 -4.02,-31.009 5.385,-5.416 5.385,-5.416 11.246,-10.779 4.43,6.488 4.124,32 1.023,34.243 C 3.965,-3.692 3.965,-3.692 0,0"
           inkscape:connector-curvature="0" />
      </g>
      <g
         transform="matrix(0.74082467,0,0,-0.74430678,49.639551,90.159874)"
         id="g5001"
         style="fill:#000000;fill-opacity:0.99607843">
        <path
           id="path5003"
           style="fill:#000000;fill-opacity:0.99607843;fill-rule:evenodd;stroke:none"
           d="m 0,0 c 17.331,-7.35 24.571,-13.811 32.55,-24.711 7.823,5.128 7.823,5.128 15.908,10.623 C 40.718,-2.296 12.651,10.924 9.55,7.896 4.63,3.895 4.63,3.895 0,0"
           inkscape:connector-curvature="0" />
      </g>
      <g
         transform="matrix(0.74082467,0,0,-0.74430678,60.178551,74.573264)"
         id="g5005"
         style="fill:#000000;fill-opacity:0.99607843">
        <path
           id="path5007"
           style="fill:#000000;fill-opacity:0.99607843;fill-rule:evenodd;stroke:none"
           d="m 0,0 c 12.266,16.117 20.757,21.103 34.419,24.876 -3.248,8.77 -3.248,8.77 -6.354,16.927 C 14.691,38.447 -5.751,16.752 -4.161,12.87 -2.148,6.509 -2.148,6.509 0,0"
           inkscape:connector-curvature="0" />
      </g>
      <g
         style="fill:#000000;fill-opacity:0.99607843"
         transform="matrix(0.74082467,0,0,-0.74430678,50.411051,58.845424)"
         id="g5009">
        <path
           id="path5011"
           style="fill:#000000;fill-opacity:0.99607843;fill-rule:evenodd;stroke:none"
           d="m 0,0 c -7.461,13.063 -7.756,20.05 -5.244,29.775 -6.582,-1.75 -6.582,-1.75 -12.494,-3.647 -3.017,-9.43 3.337,-28.42 6.64,-27.609 C -5.73,-0.724 -5.73,-0.724 0,0"
           inkscape:connector-curvature="0" />
      </g>
      <g
         style="fill:#000000;fill-opacity:0.99607843"
         transform="matrix(0.74082467,0,0,-0.74430678,35.706051,65.880064)"
         id="g5013">
        <path
           id="path5015"
           style="fill:#000000;fill-opacity:0.99607843;fill-rule:evenodd;stroke:none"
           d="m 0,0 c -11.285,-5.986 -15.632,-5.85 -20.184,-3.225 -1.426,-7.044 -1.426,-7.044 -2.456,-13.974 4.357,-3.957 19.059,1.415 19.648,5.36 C -1.578,-5.899 -1.578,-5.899 0,0"
           inkscape:connector-curvature="0" />
      </g>
      <path
         style="font-style:normal;font-variant:normal;font-weight:normal;font-stretch:normal;font-size:111.00462341px;line-height:125%;font-family:'Montserrat Alternates';-inkscape-font-specification:'Montserrat Alternates';text-align:start;letter-spacing:0px;word-spacing:0px;writing-mode:lr-tb;text-anchor:start;fill:#000000;fill-opacity:0.99607843;stroke:none"
         d="m 232.37595,42.653393 c -1.7921,-0.0143 -3.6462,0.11832 -5.5617,0.39689 -4.8503,0.7054 -9.2962,2.46919 -13.336,5.29227 -4.0501,2.75263 -7.2171,6.63922 -9.5018,11.65904 -2.2951,4.94938 -3.0056,10.42485 -2.1326,16.42794 1.2633,8.68678 5.127,15.26482 11.5912,19.73368 6.464,4.468667 13.668,6.125627 21.6112,4.970437 7.2641,-1.05643 13.4352,-4.228367 18.51934,-9.503877 l -7.51934,-7.08447 c -3.0404,3.14647 -6.8715,5.06205 -11.5018,5.73544 -6.2561,0.90984 -11.5405,-0.62943 -15.8531,-4.61776 l 0,-10e-4 c -2.6763,-2.37499 -4.3901,-5.46007 -5.0877,-8.89825 -0.1141,-0.41661 -0.228,-0.98426 -0.3434,-1.77779 -0.8422,-5.79115 0.3966,-10.58826 3.7201,-14.38899 3.3936,-3.81091 7.4113,-6.05387 12.0508,-6.7287 6.1156,-0.88929 10.7072,0.82351 13.7751,5.13702 l -25.6791,16.4672 c 9.2314,2.4473 11.7922,4.12921 17.4942,0.65909 4.2365,-2.5783 14.1877,-9.13105 22.30764,-14.04367 -1.0667,-6.8403 -4.4157,-11.85095 -10.09314,-15.35242 -4.2658,-2.679 -9.0868,-4.03932 -14.463,-4.08205 z"
         id="path5017"
         inkscape:connector-curvature="0"
         sodipodi:nodetypes="csccsssccscccsccccscccc" />
      <path
         style="fill:#000000;fill-opacity:0.99607843;fill-rule:evenodd;stroke:none"
         d="m 323.05969,28.138373 c -25.4631,0.30396 -37.312,32.88862 -44.0244,49.51015 2.2291,6.89693 5.313,13.12654 7.5194,21.49988 7.4214,-28.96786 17.5999,-51.76131 37.5249,-70.93145 -0.3395,-0.0378 -0.6794,-0.0636 -1.0199,-0.0786 z"
         id="path5019"
         inkscape:connector-curvature="0"
         sodipodi:nodetypes="ccccc" />
    </g>
  </g>
</svg>
